<svg width="26" height="26" viewBox="0 0 26 26" fill="none" xmlns="http://www.w3.org/2000/svg">
<g clip-path="url(#clip0_1_3700)">
<path d="M20.0251 5.34131H5.64038V19.9611H20.0251V5.34131Z" fill="white" stroke="#979797"/>
<path fill-rule="evenodd" clip-rule="evenodd" d="M12.9502 0.896484C19.4379 0.896484 24.705 6.16364 24.705 12.6513C24.705 19.1389 19.4379 24.4061 12.9502 24.4061C6.46259 24.4061 1.19543 19.1389 1.19543 12.6513C1.19543 6.16364 6.46259 0.896484 12.9502 0.896484ZM12.9502 5.30453C10.955 5.30453 10.7048 5.31298 9.92116 5.34875C9.13919 5.38443 8.60513 5.50863 8.13779 5.69023C7.65469 5.87799 7.24497 6.1292 6.83654 6.53764C6.42811 6.94607 6.17689 7.35579 5.98914 7.83888C5.80754 8.30618 5.68338 8.84024 5.64765 9.62221C5.61193 10.4058 5.60348 10.656 5.60348 12.6513C5.60348 14.6465 5.61193 14.8967 5.64765 15.6803C5.68338 16.4623 5.80754 16.9964 5.98914 17.4637C6.17689 17.9468 6.42811 18.3565 6.83654 18.765C7.24497 19.1734 7.65469 19.4246 8.13779 19.6124C8.60513 19.7939 9.13919 19.9181 9.92116 19.9538C10.7048 19.9896 10.955 19.998 12.9502 19.998C14.9455 19.998 15.1957 19.9896 15.9793 19.9538C16.7613 19.9181 17.2953 19.7939 17.7626 19.6124C18.2457 19.4246 18.6554 19.1734 19.0639 18.765C19.4723 18.3565 19.7236 17.9468 19.9113 17.4637C20.0929 16.9964 20.2171 16.4623 20.2528 15.6803C20.2885 14.8967 20.297 14.6465 20.297 12.6513C20.297 10.656 20.2885 10.4058 20.2528 9.62221C20.2171 8.84024 20.0929 8.30618 19.9113 7.83888C19.7236 7.35579 19.4723 6.94607 19.0639 6.53764C18.6554 6.1292 18.2457 5.87799 17.7626 5.69023C17.2953 5.50863 16.7613 5.38443 15.9793 5.34875C15.1957 5.31298 14.9455 5.30453 12.9502 5.30453ZM12.9502 6.62828C14.9119 6.62828 15.1442 6.63576 15.919 6.67112C16.6353 6.70381 17.0242 6.82347 17.2831 6.92407C17.6261 7.05733 17.8708 7.21657 18.1278 7.47366C18.385 7.7307 18.5442 7.97549 18.6774 8.31839C18.778 8.57728 18.8977 8.96624 18.9304 9.68255C18.9657 10.4573 18.9732 10.6896 18.9732 12.6513C18.9732 14.6129 18.9657 14.8453 18.9304 15.62C18.8977 16.3363 18.778 16.7253 18.6774 16.9842C18.5442 17.3271 18.385 17.5718 18.1278 17.8289C17.8708 18.086 17.6261 18.2452 17.2831 18.3785C17.0242 18.4791 16.6353 18.5988 15.919 18.6314C15.1444 18.6668 14.912 18.6743 12.9502 18.6743C10.9884 18.6743 10.7561 18.6668 9.9815 18.6314C9.26519 18.5988 8.87623 18.4791 8.61734 18.3785C8.27439 18.2452 8.02965 18.086 7.77256 17.8289C7.51547 17.5718 7.35628 17.3271 7.22302 16.9842C7.12242 16.7253 7.00271 16.3363 6.97002 15.62C6.93466 14.8453 6.92723 14.6129 6.92723 12.6513C6.92723 10.6896 6.93466 10.4573 6.97002 9.68255C7.00271 8.96624 7.12242 8.57728 7.22302 8.31839C7.35628 7.97549 7.51547 7.7307 7.77256 7.47366C8.02965 7.21657 8.27439 7.05733 8.61734 6.92407C8.87623 6.82347 9.26519 6.70381 9.9815 6.67112C10.7562 6.63576 10.9886 6.62828 12.9502 6.62828ZM12.9502 8.87863C10.8666 8.87863 9.17758 10.5677 9.17758 12.6513C9.17758 14.7349 10.8666 16.4239 12.9502 16.4239C15.0338 16.4239 16.7229 14.7349 16.7229 12.6513C16.7229 10.5677 15.0338 8.87863 12.9502 8.87863ZM12.9502 15.1002C11.5977 15.1002 10.5013 14.0038 10.5013 12.6513C10.5013 11.2988 11.5977 10.2024 12.9502 10.2024C14.3027 10.2024 15.3991 11.2988 15.3991 12.6513C15.3991 14.0038 14.3027 15.1002 12.9502 15.1002ZM17.7536 8.72958C17.7536 9.21649 17.3588 9.61115 16.8719 9.61115C16.3851 9.61115 15.9904 9.21649 15.9904 8.72958C15.9904 8.24268 16.3851 7.84797 16.8719 7.84797C17.3588 7.84797 17.7536 8.24268 17.7536 8.72958Z" fill="black"/>
<path d="M12.9503 24.8544C19.6898 24.8544 25.1533 19.3909 25.1533 12.6513C25.1533 5.91174 19.6898 0.448242 12.9503 0.448242C6.21069 0.448242 0.747192 5.91174 0.747192 12.6513C0.747192 19.3909 6.21069 24.8544 12.9503 24.8544Z" stroke="white"/>
</g>
<defs>
<clipPath id="clip0_1_3700">
<rect width="26" height="26" fill="white"/>
</clipPath>
</defs>
</svg>
