<svg width="26" height="26" viewBox="0 0 26 26" fill="none" xmlns="http://www.w3.org/2000/svg">
<g clip-path="url(#clip0_1_3710)">
<path d="M21.9684 6.31274H3.53516V19.1908H21.9684V6.31274Z" fill="white"/>
<path fill-rule="evenodd" clip-rule="evenodd" d="M12.6255 0C19.5937 0 25.251 5.65732 25.251 12.6255C25.251 19.5937 19.5937 25.251 12.6255 25.251C5.65732 25.251 0 19.5937 0 12.6255C0 5.65732 5.65732 0 12.6255 0ZM20.1868 8.82691C20.0053 8.14785 19.4706 7.61319 18.7915 7.43169C17.5607 7.10185 12.6255 7.10185 12.6255 7.10185C12.6255 7.10185 7.69037 7.10185 6.45948 7.43169C5.78061 7.61319 5.24575 8.14785 5.06426 8.82691C4.73457 10.0577 4.73457 12.6256 4.73457 12.6256C4.73457 12.6256 4.73457 15.1935 5.06426 16.4241C5.24575 17.1032 5.78061 17.638 6.45948 17.8195C7.69037 18.1492 12.6255 18.1492 12.6255 18.1492C12.6255 18.1492 17.5607 18.1492 18.7915 17.8195C19.4706 17.638 20.0053 17.1032 20.1868 16.4241C20.5165 15.1935 20.5165 12.6256 20.5165 12.6256C20.5165 12.6256 20.5165 10.0577 20.1868 8.82691ZM11.0473 14.9929V10.2583L15.1475 12.6256L11.0473 14.9929Z" fill="black"/>
<path d="M12.6255 24.7695C19.3325 24.7695 24.7696 19.3324 24.7696 12.6255C24.7696 5.91851 19.3325 0.481445 12.6255 0.481445C5.91857 0.481445 0.481506 5.91851 0.481506 12.6255C0.481506 19.3324 5.91857 24.7695 12.6255 24.7695Z" stroke="white"/>
</g>
<defs>
<clipPath id="clip0_1_3710">
<rect width="26" height="26" fill="white"/>
</clipPath>
</defs>
</svg>
