<svg width="26" height="26" viewBox="0 0 26 26" fill="none" xmlns="http://www.w3.org/2000/svg">
<g clip-path="url(#clip0_1_3721)">
<path d="M21.342 4.89307H5.59058V20.8796H21.342V4.89307Z" fill="white"/>
<path d="M11.703 18.9988H8.88184V23.4656H11.703V18.9988Z" fill="white"/>
<path fill-rule="evenodd" clip-rule="evenodd" d="M13.3486 0.896484C6.85662 0.896484 1.59387 6.15937 1.59387 12.6512C1.59387 17.6312 4.69213 21.8884 9.06491 23.6011C8.96206 22.671 8.86926 21.2407 9.10573 20.2254C9.31925 19.308 10.4841 14.3825 10.4841 14.3825C10.4841 14.3825 10.1324 13.6784 10.1324 12.6373C10.1324 11.0028 11.0798 9.78255 12.2594 9.78255C13.2622 9.78255 13.7467 10.5356 13.7467 11.4384C13.7467 12.447 13.1046 13.9548 12.7731 15.3521C12.4963 16.5222 13.3599 17.4763 14.5138 17.4763C16.6032 17.4763 18.2091 15.2734 18.2091 12.0935C18.2091 9.27907 16.1867 7.31125 13.2991 7.31125C9.95442 7.31125 7.99119 9.81989 7.99119 12.4124C7.99119 13.4228 8.38033 14.5061 8.866 15.0949C8.96197 15.2113 8.97611 15.3134 8.94755 15.4321C8.85824 15.8034 8.66002 16.6018 8.62103 16.7652C8.56974 16.9803 8.45063 17.026 8.22794 16.9224C6.75978 16.239 5.84194 14.0927 5.84194 12.3686C5.84194 8.66057 8.53599 5.25535 13.6087 5.25535C17.6865 5.25535 20.8554 8.16094 20.8554 12.0442C20.8554 16.0954 18.3011 19.3557 14.7557 19.3557C13.5646 19.3557 12.4448 18.7369 12.0616 18.006C12.0616 18.006 11.4721 20.2503 11.3292 20.8003C11.0637 21.8214 10.3474 23.1012 9.86819 23.8818C10.9681 24.2224 12.1369 24.406 13.3486 24.406C19.8407 24.406 25.1035 19.1434 25.1035 12.6512C25.1035 6.15937 19.8407 0.896484 13.3486 0.896484Z" fill="black"/>
<path d="M13.3487 24.8544C20.0883 24.8544 25.5518 19.3909 25.5518 12.6513C25.5518 5.91174 20.0883 0.448242 13.3487 0.448242C6.60913 0.448242 1.14563 5.91174 1.14563 12.6513C1.14563 19.3909 6.60913 24.8544 13.3487 24.8544Z" stroke="white"/>
</g>
<defs>
<clipPath id="clip0_1_3721">
<rect width="26" height="26" fill="white"/>
</clipPath>
</defs>
</svg>
