<svg width="26" height="25" viewBox="0 0 26 25" fill="none" xmlns="http://www.w3.org/2000/svg">
<g clip-path="url(#clip0_1_3732)">
<path d="M15.4999 3.57495H10.9547V23.0156H15.4999V3.57495Z" fill="white"/>
<path d="M18.9088 3.1228H6.86401V16.9121H18.9088V3.1228Z" fill="white"/>
<path fill-rule="evenodd" clip-rule="evenodd" d="M12.9776 23.4946L13.0002 23.4947H12.9924L12.9776 23.4946ZM13.0621 23.4947H13.0543L13.0769 23.4946L13.0621 23.4947ZM12.9424 23.4944L12.9668 23.4945H12.9528L12.9424 23.4944ZM13.1017 23.4945H13.0877L13.1121 23.4944L13.1017 23.4945ZM12.9112 23.4942L12.9275 23.4943L12.9144 23.4942H12.9112ZM13.1401 23.4942L13.127 23.4943L13.1433 23.4942H13.1401ZM13.1711 23.4938L13.1654 23.4939L13.1874 23.4936L13.1711 23.4938ZM12.8671 23.4936L12.8891 23.4939L12.8834 23.4938L12.8671 23.4936ZM13.2105 23.4933L13.1972 23.4935L13.2244 23.4931L13.2105 23.4933ZM12.8302 23.4931L12.8573 23.4935L12.844 23.4933L12.8302 23.4931ZM13.2502 23.4926L13.2322 23.4929L13.2573 23.4924L13.2502 23.4926ZM12.7972 23.4924L12.8223 23.4929L12.8043 23.4926L12.7972 23.4924ZM12.7564 23.4916L12.7786 23.4921L12.7747 23.492L12.7564 23.4916ZM13.2799 23.492L13.2759 23.4921L13.2981 23.4916L13.2799 23.492ZM12.7176 23.4906L12.7481 23.4914L12.7358 23.4911L12.7176 23.4906ZM13.3187 23.4911L13.3064 23.4914L13.3369 23.4906L13.3187 23.4911ZM13.3592 23.49L13.3394 23.4906L13.3706 23.4897L13.3592 23.49ZM12.6839 23.4897L12.7152 23.4906L12.6953 23.49L12.6839 23.4897ZM12.6594 23.4889L12.6816 23.4896L12.6607 23.4889L12.6415 23.4883L12.6594 23.4889ZM13.3938 23.4889L13.3729 23.4896L13.3951 23.4889L13.413 23.4883L13.3938 23.4889ZM13.4265 23.4879L13.4154 23.4883L13.4495 23.4871L13.4265 23.4879ZM12.605 23.4871L12.6391 23.4883L12.628 23.4879L12.605 23.4871ZM12.5713 23.4858L12.607 23.4871L12.5872 23.4864L12.5713 23.4858ZM13.4673 23.4864L13.4475 23.4871L13.4832 23.4858L13.4673 23.4864ZM12.5389 23.4844L12.5739 23.4859L12.5465 23.4848L12.5389 23.4844ZM13.508 23.4848L13.4807 23.4859L13.5156 23.4844L13.508 23.4848ZM12.4924 23.4824L12.53 23.4841L12.5208 23.4838L12.4924 23.4824ZM13.5337 23.4838L13.5245 23.4841L13.5621 23.4824L13.5337 23.4838ZM12.4593 23.4809L12.4982 23.4826L12.4798 23.4819L12.4593 23.4809ZM13.5747 23.4819L13.5563 23.4826L13.5953 23.4809L13.5747 23.4819ZM12.4269 23.4792L12.4661 23.4811L12.4385 23.4799L12.4269 23.4792ZM13.616 23.4799L13.5884 23.4811L13.6276 23.4792L13.616 23.4799ZM13.6486 23.4781L13.6128 23.48L13.6445 23.4783L13.6819 23.4763L13.6486 23.4781ZM12.41 23.4783L12.4417 23.48L12.4059 23.4781L12.3726 23.4763L12.41 23.4783ZM13.6818 23.4762L13.666 23.4771L13.7061 23.4749L13.6818 23.4762ZM12.3484 23.4749L12.3885 23.4771L12.3727 23.4762L12.3484 23.4749ZM12.3164 23.4729L12.3564 23.4753L12.3314 23.4739L12.3164 23.4729ZM13.7231 23.4739L13.6981 23.4753L13.7381 23.4729L13.7231 23.4739ZM12.2955 23.4716L12.3316 23.4739L12.298 23.4718L12.2642 23.4696L12.2955 23.4716ZM13.7565 23.4718L13.7229 23.4739L13.759 23.4716L13.7903 23.4696L13.7565 23.4718ZM13.7888 23.4697L13.7768 23.4705L13.815 23.4679L13.7888 23.4697ZM12.2395 23.4679L12.2778 23.4705L12.2657 23.4697L12.2395 23.4679ZM12.2077 23.4657L12.2453 23.4684L12.2247 23.467L12.2077 23.4657ZM13.8298 23.467L13.8093 23.4684L13.8468 23.4657L13.8298 23.467ZM12.1766 23.4635L12.2111 23.466L12.1843 23.4641L12.1766 23.4635ZM13.8702 23.4641L13.8434 23.466L13.8779 23.4635L13.8702 23.4641ZM12.1349 23.4603L12.1651 23.4626L12.1578 23.4621L12.1349 23.4603ZM13.8967 23.4621L13.8894 23.4626L13.9196 23.4603L13.8967 23.4621ZM13.9365 23.4591L13.9221 23.4601L13.9528 23.4577L13.9365 23.4591ZM12.1017 23.4577L12.1325 23.4601L12.118 23.4591L12.1017 23.4577ZM12.0708 23.4552L12.0969 23.4573L12.0785 23.4558L12.0708 23.4552ZM13.976 23.4558L13.9576 23.4573L13.9837 23.4552L13.976 23.4558ZM14.0439 23.45L14.0368 23.4506L14.0547 23.449L14.0439 23.45ZM11.9998 23.449L12.0177 23.4506L12.0106 23.45L11.9998 23.449ZM11.9678 23.4461L11.9811 23.4474L11.9728 23.4466L11.9678 23.4461ZM14.0817 23.4466L14.0734 23.4474L14.0868 23.4461L14.0817 23.4466ZM11.2246 23.3302C5.79526 22.4814 1.63708 17.8024 1.63708 12.165C1.63708 5.92688 6.72867 0.862305 13 0.862305C19.2714 0.862305 24.363 5.92688 24.363 12.165C24.363 17.8024 20.2048 22.4814 14.7755 23.3302V15.4322H17.4232L17.927 12.165H14.7755V10.0448C14.7755 9.15097 15.2157 8.27969 16.6273 8.27969H18.0601V5.49817C18.0601 5.49817 16.7598 5.27741 15.5165 5.27741C12.921 5.27741 11.2246 6.84213 11.2246 9.67486V12.165H8.33946V15.4322H11.2246V23.3302Z" fill="black"/>
<path d="M13 23.8986C19.5149 23.8986 24.7963 18.6452 24.7963 12.1649C24.7963 5.68452 19.5149 0.431152 13 0.431152C6.48512 0.431152 1.20374 5.68452 1.20374 12.1649C1.20374 18.6452 6.48512 23.8986 13 23.8986Z" stroke="white"/>
</g>
<defs>
<clipPath id="clip0_1_3732">
<rect width="26" height="25" fill="white"/>
</clipPath>
</defs>
</svg>
