<svg width="26" height="26" viewBox="0 0 26 26" fill="none" xmlns="http://www.w3.org/2000/svg">
<g clip-path="url(#clip0_1_3690)">
<path d="M21.2783 5.36328H5.29175V19.9392H21.2783V5.36328Z" fill="white"/>
<path fill-rule="evenodd" clip-rule="evenodd" d="M13.0498 0.896484C19.5375 0.896484 24.8046 6.16364 24.8046 12.6513C24.8046 19.1389 19.5375 24.4061 13.0498 24.4061C6.5622 24.4061 1.29504 19.1389 1.29504 12.6513C1.29504 6.16364 6.5622 0.896484 13.0498 0.896484ZM9.37476 19.2574V10.0776H6.32293V19.2574H9.37476ZM20.3774 19.2574V13.9932C20.3774 11.1735 18.8719 9.86176 16.8644 9.86176C15.2455 9.86176 14.5204 10.752 14.1144 11.3773V10.0776H11.0634C11.1038 10.9389 11.0634 19.2574 11.0634 19.2574H14.1144V14.1308C14.1144 13.8564 14.1341 13.5821 14.215 13.3859C14.4352 12.8379 14.9376 12.2702 15.7805 12.2702C16.8841 12.2702 17.3262 13.1123 17.3262 14.3458V19.2574H20.3774ZM7.86946 5.65121C6.82531 5.65121 6.14311 6.33767 6.14311 7.23741C6.14311 8.1182 6.80455 8.82357 7.82905 8.82357H7.84875C8.91288 8.82357 9.57524 8.1182 9.57524 7.23741C9.55549 6.33767 8.91293 5.65121 7.86946 5.65121Z" fill="black"/>
<path d="M13.0499 24.8544C19.7894 24.8544 25.2529 19.3909 25.2529 12.6513C25.2529 5.91174 19.7894 0.448242 13.0499 0.448242C6.3103 0.448242 0.846802 5.91174 0.846802 12.6513C0.846802 19.3909 6.3103 24.8544 13.0499 24.8544Z" stroke="white"/>
</g>
<defs>
<clipPath id="clip0_1_3690">
<rect width="26" height="26" fill="white"/>
</clipPath>
</defs>
</svg>
