<svg width="98" height="13" viewBox="0 0 98 13" fill="none" xmlns="http://www.w3.org/2000/svg">
<path fill-rule="evenodd" clip-rule="evenodd" d="M0 0H4.51437V10.7492C4.51437 11.7234 5.57097 11.8224 6.06719 11.8224H11.2459V12.6728H1.53684V0.84206H0V0Z" fill="black"/>
<path fill-rule="evenodd" clip-rule="evenodd" d="M37.9238 0H36.9096L32.365 7.44824L27.8206 0H23.4648V0.851456H24.9586L29.9906 9.10155V12.6728H35.0697V11.8213H34.0633C33.5444 11.8213 32.9154 11.5485 32.9154 10.8872L32.9233 8.24185L37.9238 0Z" fill="black"/>
<path fill-rule="evenodd" clip-rule="evenodd" d="M49.6901 0.00828764V0.858085H51.2572V12.6728H52.1733V3.16822L58.0797 12.6563L64.2274 2.82168V12.6646H68.9688V11.8148C68.6147 11.8148 67.2169 11.8148 67.2169 10.833V0L64.9344 0.00828764L59.3011 9.04261L53.62 0H49.6901V0.00828764Z" fill="black"/>
<path fill-rule="evenodd" clip-rule="evenodd" d="M83.1701 7.25694L86.595 1.84106L90.0037 7.25694H83.1701ZM95.5579 10.5511L88.9184 0H84.587V0.850353H86.1009L78.676 12.6728H79.7451L82.6355 8.1073H90.5377L93.4124 12.6728H97.9547V11.8224C96.9669 11.8224 96.0521 11.3354 95.5579 10.5511Z" fill="black"/>
</svg>
